<svg width="40" height="40" viewBox="0 0 40 40" fill="none" xmlns="http://www.w3.org/2000/svg">
<path d="M18.3333 28.3333H21.6666V21.6667H28.3333V18.3333H21.6666V11.6667H18.3333V18.3333H11.6666V21.6667H18.3333V28.3333ZM20 36.6667C17.6944 36.6667 15.5278 36.2292 13.5 35.3542C11.4722 34.4792 9.70831 33.2917 8.20831 31.7917C6.70831 30.2917 5.52081 28.5278 4.64581 26.5C3.77081 24.4722 3.33331 22.3055 3.33331 20C3.33331 17.6944 3.77081 15.5278 4.64581 13.5C5.52081 11.4722 6.70831 9.70833 8.20831 8.20833C9.70831 6.70833 11.4722 5.52083 13.5 4.64583C15.5278 3.77083 17.6944 3.33333 20 3.33333C22.3055 3.33333 24.4722 3.77083 26.5 4.64583C28.5278 5.52083 30.2916 6.70833 31.7916 8.20833C33.2916 9.70833 34.4791 11.4722 35.3541 13.5C36.2291 15.5278 36.6666 17.6944 36.6666 20C36.6666 22.3055 36.2291 24.4722 35.3541 26.5C34.4791 28.5278 33.2916 30.2917 31.7916 31.7917C30.2916 33.2917 28.5278 34.4792 26.5 35.3542C24.4722 36.2292 22.3055 36.6667 20 36.6667ZM20 33.3333C23.7222 33.3333 26.875 32.0417 29.4583 29.4583C32.0416 26.875 33.3333 23.7222 33.3333 20C33.3333 16.2778 32.0416 13.125 29.4583 10.5417C26.875 7.95833 23.7222 6.66666 20 6.66666C16.2778 6.66666 13.125 7.95833 10.5416 10.5417C7.95831 13.125 6.66665 16.2778 6.66665 20C6.66665 23.7222 7.95831 26.875 10.5416 29.4583C13.125 32.0417 16.2778 33.3333 20 33.3333Z" fill="#5F6368"/>
</svg>
